<?xml version="1.0" encoding="UTF-8"?>
<svg xmlns="http://www.w3.org/2000/svg" version="1.1" width="400" height="400" viewBox="0 0 400 400"><rect x="0" y="0" width="400" height="400" fill="#ffffff"/><g transform="scale(12.121)"><g transform="translate(0,0)"><path fill-rule="evenodd" d="M9 0L9 1L8 1L8 2L9 2L9 3L8 3L8 4L10 4L10 7L11 7L11 4L12 4L12 5L13 5L13 6L12 6L12 9L13 9L13 8L14 8L14 9L15 9L15 10L17 10L17 9L19 9L19 10L20 10L20 12L22 12L22 13L18 13L18 12L19 12L19 11L18 11L18 12L17 12L17 11L16 11L16 12L17 12L17 13L18 13L18 14L16 14L16 13L12 13L12 11L13 11L13 10L11 10L11 11L10 11L10 9L11 9L11 8L6 8L6 9L9 9L9 10L8 10L8 11L7 11L7 10L6 10L6 11L5 11L5 8L0 8L0 9L1 9L1 11L0 11L0 13L1 13L1 14L0 14L0 15L1 15L1 16L0 16L0 17L2 17L2 18L4 18L4 19L2 19L2 23L3 23L3 24L2 24L2 25L5 25L5 24L6 24L6 25L7 25L7 24L6 24L6 23L7 23L7 22L6 22L6 21L7 21L7 20L8 20L8 23L9 23L9 24L10 24L10 23L9 23L9 21L12 21L12 22L13 22L13 23L12 23L12 25L13 25L13 24L14 24L14 25L17 25L17 26L15 26L15 27L14 27L14 28L15 28L15 29L12 29L12 27L13 27L13 26L10 26L10 30L11 30L11 29L12 29L12 30L13 30L13 31L12 31L12 33L13 33L13 32L14 32L14 33L16 33L16 32L17 32L17 33L18 33L18 32L20 32L20 33L21 33L21 32L22 32L22 33L23 33L23 32L24 32L24 33L25 33L25 32L24 32L24 31L27 31L27 32L28 32L28 33L29 33L29 31L30 31L30 32L31 32L31 33L32 33L32 32L31 32L31 31L30 31L30 30L33 30L33 28L32 28L32 29L30 29L30 28L31 28L31 27L32 27L32 26L33 26L33 24L32 24L32 26L31 26L31 25L30 25L30 24L31 24L31 23L32 23L32 22L33 22L33 21L32 21L32 20L31 20L31 19L32 19L32 18L33 18L33 17L32 17L32 16L31 16L31 15L32 15L32 14L33 14L33 13L31 13L31 15L30 15L30 13L29 13L29 10L28 10L28 8L27 8L27 9L26 9L26 8L24 8L24 7L25 7L25 6L24 6L24 7L23 7L23 5L24 5L24 4L25 4L25 3L24 3L24 4L23 4L23 5L21 5L21 3L23 3L23 1L24 1L24 2L25 2L25 1L24 1L24 0L23 0L23 1L22 1L22 0L21 0L21 1L20 1L20 0L19 0L19 1L20 1L20 2L18 2L18 1L17 1L17 0L15 0L15 1L17 1L17 2L16 2L16 4L12 4L12 2L13 2L13 1L11 1L11 2L10 2L10 0ZM14 2L14 3L15 3L15 2ZM17 2L17 3L18 3L18 2ZM10 3L10 4L11 4L11 3ZM16 4L16 5L18 5L18 6L17 6L17 7L16 7L16 6L15 6L15 7L14 7L14 6L13 6L13 7L14 7L14 8L15 8L15 7L16 7L16 9L17 9L17 8L19 8L19 9L20 9L20 8L21 8L21 9L22 9L22 8L21 8L21 7L22 7L22 6L21 6L21 5L20 5L20 4ZM8 5L8 7L9 7L9 5ZM18 6L18 7L19 7L19 8L20 8L20 7L21 7L21 6L20 6L20 7L19 7L19 6ZM29 8L29 9L30 9L30 8ZM31 8L31 10L33 10L33 9L32 9L32 8ZM24 9L24 10L21 10L21 11L26 11L26 12L25 12L25 13L24 13L24 12L23 12L23 13L22 13L22 14L19 14L19 15L16 15L16 16L15 16L15 15L14 15L14 16L13 16L13 17L12 17L12 15L13 15L13 14L12 14L12 13L11 13L11 12L10 12L10 13L11 13L11 15L10 15L10 16L11 16L11 18L10 18L10 17L9 17L9 13L8 13L8 14L7 14L7 13L6 13L6 14L7 14L7 15L6 15L6 16L5 16L5 15L4 15L4 16L5 16L5 17L4 17L4 18L5 18L5 17L6 17L6 18L7 18L7 19L6 19L6 20L7 20L7 19L8 19L8 18L9 18L9 19L10 19L10 20L11 20L11 18L13 18L13 19L12 19L12 21L15 21L15 22L16 22L16 23L14 23L14 24L18 24L18 23L17 23L17 22L18 22L18 21L20 21L20 20L21 20L21 23L22 23L22 24L20 24L20 25L21 25L21 27L22 27L22 28L20 28L20 30L18 30L18 29L19 29L19 27L20 27L20 26L19 26L19 25L18 25L18 26L17 26L17 27L15 27L15 28L16 28L16 29L15 29L15 30L16 30L16 29L17 29L17 30L18 30L18 31L17 31L17 32L18 32L18 31L20 31L20 32L21 32L21 29L22 29L22 30L23 30L23 31L24 31L24 27L22 27L22 26L24 26L24 25L22 25L22 24L23 24L23 23L24 23L24 24L27 24L27 22L25 22L25 21L27 21L27 20L28 20L28 19L26 19L26 18L25 18L25 17L28 17L28 18L29 18L29 17L30 17L30 19L29 19L29 20L30 20L30 21L28 21L28 24L30 24L30 23L29 23L29 22L30 22L30 21L31 21L31 20L30 20L30 19L31 19L31 16L30 16L30 15L29 15L29 13L28 13L28 16L26 16L26 14L25 14L25 13L27 13L27 12L28 12L28 11L27 11L27 10L25 10L25 9ZM2 11L2 12L1 12L1 13L2 13L2 12L3 12L3 14L2 14L2 15L3 15L3 14L5 14L5 12L3 12L3 11ZM6 11L6 12L7 12L7 11ZM14 11L14 12L15 12L15 11ZM30 11L30 12L31 12L31 11ZM23 13L23 14L24 14L24 15L20 15L20 16L22 16L22 17L19 17L19 16L16 16L16 17L19 17L19 18L18 18L18 20L17 20L17 21L16 21L16 20L15 20L15 19L16 19L16 18L15 18L15 19L14 19L14 20L15 20L15 21L16 21L16 22L17 22L17 21L18 21L18 20L20 20L20 19L19 19L19 18L21 18L21 20L22 20L22 21L23 21L23 22L22 22L22 23L23 23L23 22L24 22L24 21L23 21L23 19L22 19L22 17L23 17L23 18L24 18L24 17L23 17L23 16L25 16L25 14L24 14L24 13ZM7 15L7 16L6 16L6 17L7 17L7 16L8 16L8 15ZM14 16L14 17L15 17L15 16ZM28 16L28 17L29 17L29 16ZM0 18L0 25L1 25L1 18ZM24 19L24 20L25 20L25 19ZM3 20L3 21L4 21L4 22L5 22L5 23L4 23L4 24L5 24L5 23L6 23L6 22L5 22L5 20ZM19 22L19 23L20 23L20 22ZM8 25L8 27L9 27L9 25ZM25 25L25 28L28 28L28 25ZM29 25L29 28L30 28L30 27L31 27L31 26L30 26L30 25ZM18 26L18 27L19 27L19 26ZM26 26L26 27L27 27L27 26ZM8 28L8 33L9 33L9 28ZM17 28L17 29L18 29L18 28ZM22 28L22 29L23 29L23 28ZM25 29L25 30L28 30L28 31L29 31L29 30L28 30L28 29ZM10 31L10 32L11 32L11 31ZM14 31L14 32L15 32L15 31ZM0 0L0 7L7 7L7 0ZM1 1L1 6L6 6L6 1ZM2 2L2 5L5 5L5 2ZM26 0L26 7L33 7L33 0ZM27 1L27 6L32 6L32 1ZM28 2L28 5L31 5L31 2ZM0 26L0 33L7 33L7 26ZM1 27L1 32L6 32L6 27ZM2 28L2 31L5 31L5 28Z" fill="#000000"/></g></g></svg>
