<?xml version="1.0" encoding="UTF-8"?>
<svg xmlns="http://www.w3.org/2000/svg" version="1.1" width="400" height="400" viewBox="0 0 400 400"><rect x="0" y="0" width="400" height="400" fill="#ffffff"/><g transform="scale(12.121)"><g transform="translate(0,0)"><path fill-rule="evenodd" d="M8 0L8 1L10 1L10 0ZM15 0L15 1L14 1L14 2L11 2L11 4L10 4L10 3L9 3L9 2L8 2L8 5L9 5L9 6L8 6L8 7L9 7L9 8L8 8L8 9L7 9L7 8L6 8L6 9L5 9L5 10L4 10L4 8L0 8L0 10L1 10L1 11L0 11L0 14L1 14L1 13L2 13L2 15L4 15L4 16L3 16L3 18L2 18L2 17L1 17L1 15L0 15L0 19L1 19L1 18L2 18L2 20L1 20L1 21L0 21L0 22L1 22L1 21L3 21L3 22L2 22L2 23L1 23L1 24L0 24L0 25L1 25L1 24L2 24L2 23L3 23L3 24L4 24L4 23L3 23L3 22L4 22L4 21L5 21L5 22L6 22L6 23L5 23L5 25L8 25L8 26L10 26L10 25L8 25L8 24L6 24L6 23L7 23L7 22L8 22L8 23L9 23L9 24L11 24L11 23L14 23L14 22L15 22L15 21L14 21L14 20L13 20L13 18L14 18L14 17L12 17L12 16L14 16L14 15L15 15L15 14L14 14L14 13L13 13L13 14L12 14L12 12L16 12L16 10L17 10L17 11L19 11L19 12L21 12L21 11L22 11L22 10L23 10L23 12L22 12L22 13L23 13L23 12L24 12L24 14L25 14L25 15L23 15L23 14L21 14L21 15L20 15L20 13L19 13L19 15L20 15L20 18L21 18L21 19L19 19L19 17L18 17L18 19L16 19L16 18L17 18L17 16L16 16L16 17L15 17L15 19L16 19L16 20L17 20L17 21L18 21L18 22L16 22L16 25L15 25L15 24L14 24L14 26L13 26L13 24L12 24L12 25L11 25L11 27L9 27L9 29L8 29L8 33L9 33L9 30L10 30L10 33L11 33L11 32L12 32L12 31L11 31L11 30L10 30L10 28L12 28L12 29L13 29L13 28L12 28L12 26L13 26L13 27L14 27L14 30L13 30L13 33L15 33L15 32L17 32L17 33L18 33L18 31L19 31L19 33L22 33L22 32L23 32L23 29L25 29L25 30L24 30L24 32L25 32L25 33L26 33L26 32L27 32L27 33L28 33L28 32L30 32L30 33L31 33L31 32L30 32L30 29L31 29L31 26L30 26L30 24L29 24L29 23L28 23L28 24L26 24L26 23L27 23L27 22L28 22L28 21L26 21L26 20L29 20L29 21L30 21L30 22L31 22L31 24L32 24L32 25L33 25L33 24L32 24L32 23L33 23L33 21L31 21L31 20L30 20L30 18L31 18L31 19L32 19L32 20L33 20L33 19L32 19L32 18L33 18L33 16L31 16L31 14L32 14L32 13L30 13L30 14L28 14L28 15L27 15L27 14L26 14L26 13L25 13L25 12L24 12L24 11L25 11L25 10L26 10L26 11L27 11L27 13L29 13L29 12L28 12L28 11L31 11L31 12L32 12L32 11L33 11L33 8L32 8L32 9L31 9L31 8L28 8L28 9L26 9L26 8L25 8L25 2L24 2L24 0L23 0L23 1L22 1L22 0L21 0L21 1L22 1L22 2L24 2L24 8L23 8L23 6L22 6L22 8L21 8L21 6L20 6L20 5L19 5L19 4L21 4L21 5L22 5L22 4L21 4L21 2L20 2L20 3L16 3L16 1L17 1L17 0ZM19 0L19 1L18 1L18 2L19 2L19 1L20 1L20 0ZM12 3L12 5L10 5L10 6L9 6L9 7L10 7L10 8L9 8L9 9L8 9L8 10L7 10L7 9L6 9L6 10L7 10L7 11L6 11L6 12L5 12L5 13L4 13L4 10L2 10L2 9L1 9L1 10L2 10L2 11L1 11L1 12L2 12L2 13L4 13L4 14L7 14L7 13L6 13L6 12L8 12L8 13L9 13L9 15L8 15L8 16L9 16L9 17L6 17L6 16L7 16L7 15L6 15L6 16L5 16L5 17L6 17L6 18L5 18L5 19L6 19L6 20L5 20L5 21L6 21L6 22L7 22L7 21L8 21L8 20L7 20L7 19L6 19L6 18L8 18L8 19L9 19L9 18L12 18L12 17L10 17L10 13L11 13L11 11L14 11L14 10L15 10L15 9L16 9L16 8L17 8L17 7L18 7L18 6L17 6L17 4L16 4L16 3ZM13 4L13 5L12 5L12 7L11 7L11 6L10 6L10 7L11 7L11 8L12 8L12 7L13 7L13 9L15 9L15 5L14 5L14 4ZM13 5L13 7L14 7L14 5ZM16 6L16 7L17 7L17 6ZM19 6L19 7L20 7L20 6ZM18 8L18 9L17 9L17 10L19 10L19 11L21 11L21 10L19 10L19 8ZM22 8L22 9L23 9L23 8ZM24 8L24 10L25 10L25 8ZM9 9L9 10L8 10L8 11L9 11L9 10L10 10L10 9ZM28 9L28 10L27 10L27 11L28 11L28 10L31 10L31 11L32 11L32 10L31 10L31 9ZM9 12L9 13L10 13L10 12ZM17 12L17 15L18 15L18 12ZM11 14L11 16L12 16L12 14ZM13 14L13 15L14 15L14 14ZM25 15L25 18L22 18L22 17L21 17L21 18L22 18L22 19L21 19L21 20L22 20L22 21L21 21L21 22L18 22L18 23L17 23L17 24L18 24L18 23L19 23L19 24L20 24L20 26L21 26L21 25L22 25L22 28L24 28L24 27L23 27L23 25L22 25L22 23L21 23L21 22L23 22L23 21L24 21L24 22L25 22L25 23L26 23L26 22L25 22L25 21L24 21L24 20L26 20L26 15ZM28 15L28 16L30 16L30 15ZM27 17L27 18L28 18L28 17ZM31 17L31 18L32 18L32 17ZM11 19L11 20L12 20L12 19ZM22 19L22 20L24 20L24 19ZM3 20L3 21L4 21L4 20ZM6 20L6 21L7 21L7 20ZM9 20L9 21L10 21L10 22L9 22L9 23L10 23L10 22L12 22L12 21L10 21L10 20ZM20 23L20 24L21 24L21 23ZM16 25L16 26L14 26L14 27L16 27L16 26L17 26L17 28L15 28L15 29L16 29L16 31L18 31L18 30L17 30L17 29L19 29L19 31L21 31L21 32L22 32L22 31L21 31L21 30L22 30L22 29L19 29L19 28L18 28L18 27L19 27L19 26L18 26L18 25ZM25 25L25 28L28 28L28 25ZM26 26L26 27L27 27L27 26ZM29 26L29 29L28 29L28 31L27 31L27 32L28 32L28 31L29 31L29 29L30 29L30 26ZM26 29L26 30L27 30L27 29ZM32 29L32 30L33 30L33 29ZM25 31L25 32L26 32L26 31ZM32 31L32 32L33 32L33 31ZM0 0L0 7L7 7L7 0ZM1 1L1 6L6 6L6 1ZM2 2L2 5L5 5L5 2ZM26 0L26 7L33 7L33 0ZM27 1L27 6L32 6L32 1ZM28 2L28 5L31 5L31 2ZM0 26L0 33L7 33L7 26ZM1 27L1 32L6 32L6 27ZM2 28L2 31L5 31L5 28Z" fill="#000000"/></g></g></svg>
